<?xml version="1.0" standalone="no"?>
<!DOCTYPE svg PUBLIC "-//W3C//DTD SVG 20010904//EN"
 "http://www.w3.org/TR/2001/REC-SVG-20010904/DTD/svg10.dtd">
<svg version="1.0" xmlns="http://www.w3.org/2000/svg"
 width="1872.000000pt" height="1872.000000pt" viewBox="0 0 1872.000000 1872.000000"
 preserveAspectRatio="xMidYMid meet">
<metadata>
Created by potrace 1.15, written by Peter Selinger 2001-2017
</metadata>
<g transform="translate(0.000000,1872.000000) scale(0.100000,-0.100000)"
fill="#000000" stroke="none">
<path d="M9407 18364 c-1 -1 -136 -4 -300 -7 -164 -4 -301 -9 -306 -11 -5 -3
-42 -6 -82 -7 -41 -1 -121 -7 -179 -15 -57 -7 -107 -11 -112 -8 -4 3 -51 -2
-105 -11 -54 -9 -125 -18 -158 -20 -33 -2 -92 -11 -130 -19 -39 -8 -84 -15
-100 -15 -17 1 -74 -8 -127 -20 -53 -11 -121 -23 -149 -26 -29 -4 -56 -8 -59
-10 -9 -6 -149 -36 -190 -41 -19 -3 -83 -18 -142 -34 -59 -17 -116 -30 -126
-30 -10 0 -60 -13 -112 -29 -52 -17 -106 -32 -120 -34 -14 -3 -70 -19 -126
-36 -55 -17 -110 -33 -122 -36 -12 -2 -68 -20 -124 -41 -57 -20 -123 -42 -148
-49 -25 -7 -74 -25 -110 -40 -36 -15 -90 -35 -120 -45 -160 -52 -638 -263
-865 -381 -254 -133 -337 -178 -402 -219 -26 -17 -51 -30 -56 -30 -4 0 -34
-18 -65 -39 -47 -32 -143 -91 -254 -156 -43 -25 -175 -114 -233 -157 -35 -27
-67 -48 -70 -48 -4 0 -33 -20 -65 -45 -32 -25 -61 -45 -65 -45 -3 0 -43 -29
-88 -65 -45 -35 -107 -83 -136 -107 -30 -24 -60 -45 -65 -47 -6 -2 -43 -32
-82 -67 -40 -35 -76 -64 -81 -64 -5 0 -29 -20 -53 -45 -24 -25 -49 -45 -55
-45 -6 0 -33 -23 -60 -51 -28 -28 -90 -85 -140 -127 -49 -42 -121 -108 -160
-147 -38 -39 -97 -96 -130 -127 -70 -65 -327 -334 -378 -396 -34 -40 -84 -96
-134 -149 -12 -13 -56 -65 -96 -116 -41 -50 -97 -119 -124 -152 -27 -33 -68
-87 -92 -120 -24 -33 -49 -64 -56 -70 -6 -5 -35 -44 -63 -85 -29 -41 -70 -100
-92 -130 -23 -30 -67 -95 -100 -145 -32 -49 -63 -94 -67 -100 -5 -5 -33 -48
-64 -95 -56 -85 -88 -138 -166 -273 -23 -39 -58 -99 -79 -132 -59 -92 -326
-617 -365 -719 -11 -28 -27 -61 -35 -74 -8 -12 -28 -58 -44 -102 -16 -44 -39
-99 -50 -122 -12 -24 -39 -92 -61 -153 -22 -60 -48 -128 -59 -150 -10 -22 -31
-80 -45 -130 -15 -49 -31 -94 -35 -100 -5 -5 -22 -59 -39 -120 -17 -60 -35
-117 -39 -125 -5 -8 -21 -62 -36 -120 -15 -58 -31 -112 -36 -121 -5 -9 -20
-70 -34 -135 -15 -65 -31 -128 -36 -139 -5 -11 -18 -68 -29 -126 -11 -58 -24
-116 -29 -130 -5 -13 -15 -62 -21 -109 -7 -47 -17 -100 -23 -117 -10 -34 -38
-208 -63 -393 -8 -58 -19 -136 -24 -175 -6 -38 -10 -97 -11 -130 0 -34 -4 -65
-9 -70 -6 -6 -12 -57 -14 -115 -3 -58 -10 -188 -16 -290 -27 -446 -10 -1052
40 -1475 6 -49 13 -115 15 -145 3 -30 11 -93 20 -140 9 -47 17 -105 19 -130 2
-25 13 -87 24 -139 11 -51 19 -97 16 -100 -2 -4 7 -51 20 -104 13 -53 26 -115
29 -136 3 -21 16 -83 30 -137 14 -55 27 -110 29 -124 8 -41 46 -187 57 -215 5
-14 12 -40 15 -58 3 -18 20 -75 37 -127 17 -52 32 -105 34 -117 1 -12 16 -59
32 -105 17 -46 40 -114 52 -153 12 -38 36 -108 55 -155 18 -47 38 -103 45
-125 7 -22 30 -78 51 -124 22 -46 39 -90 39 -97 0 -8 13 -42 29 -76 16 -35 43
-97 61 -138 62 -147 299 -622 354 -709 16 -24 43 -72 60 -105 44 -84 71 -130
115 -195 21 -31 41 -64 44 -74 4 -11 29 -51 55 -90 75 -111 127 -191 131 -202
2 -5 30 -44 61 -85 31 -41 59 -82 62 -90 3 -8 26 -41 52 -72 25 -31 46 -59 46
-62 0 -8 181 -242 277 -359 225 -273 403 -467 670 -732 132 -131 313 -303 332
-315 8 -5 76 -63 185 -160 28 -25 72 -61 99 -79 26 -19 47 -37 47 -41 0 -4 25
-24 55 -45 31 -21 59 -43 63 -49 4 -7 45 -39 92 -71 47 -32 87 -62 90 -65 3
-3 30 -23 60 -45 30 -22 57 -42 60 -46 3 -4 43 -32 90 -63 47 -30 96 -64 110
-75 25 -19 127 -85 210 -136 25 -15 47 -31 50 -35 3 -4 41 -27 85 -50 44 -24
94 -54 110 -66 17 -12 50 -32 74 -44 24 -12 49 -26 55 -32 18 -16 133 -77 386
-203 129 -64 255 -128 280 -140 25 -13 81 -38 125 -55 44 -17 91 -38 105 -46
14 -7 72 -32 130 -55 58 -22 123 -49 145 -58 22 -10 78 -31 125 -46 47 -16 94
-34 105 -41 11 -6 63 -24 115 -39 52 -15 109 -33 125 -40 17 -8 80 -28 140
-45 61 -17 119 -35 130 -40 23 -11 173 -50 193 -50 8 0 28 -6 45 -14 18 -8 79
-24 137 -36 58 -11 114 -25 125 -30 21 -10 163 -38 360 -72 66 -11 127 -23
135 -26 8 -3 74 -14 145 -24 72 -10 155 -23 185 -28 30 -4 79 -9 108 -9 29 -1
60 -5 70 -10 9 -5 87 -14 172 -21 85 -6 209 -16 275 -22 140 -12 873 -16 1055
-6 178 10 385 27 455 37 33 5 63 7 67 5 3 -2 51 3 105 12 54 8 122 17 152 20
29 2 90 11 135 19 44 9 103 18 129 21 27 3 87 13 133 24 47 11 97 20 112 20
15 0 68 11 117 25 50 13 106 26 125 28 19 2 78 16 130 30 52 14 111 29 130 32
38 6 216 57 375 108 55 17 114 35 130 38 17 4 95 30 175 59 80 28 156 55 170
59 14 5 58 22 99 40 40 17 79 31 86 31 7 0 55 20 106 43 52 24 112 50 134 57
41 13 329 146 439 202 34 17 81 41 106 54 25 12 77 39 115 60 39 20 97 52 130
69 33 17 85 47 115 66 30 19 63 38 72 42 10 3 43 22 73 42 31 19 58 35 61 35
3 0 37 22 77 48 40 27 79 51 88 55 10 3 49 28 88 56 39 28 73 51 76 51 3 0 30
18 59 40 29 22 56 40 60 40 4 0 44 28 89 63 45 34 89 67 98 72 32 19 101 70
176 130 41 33 85 67 98 75 41 27 210 167 239 199 17 17 34 31 39 31 28 0 550
499 768 735 35 38 78 84 96 102 17 19 51 57 74 86 24 29 61 72 84 97 61 69
120 140 167 202 60 77 125 159 147 183 10 11 41 54 70 95 64 92 126 179 147
203 8 10 29 42 46 70 18 29 43 66 57 83 14 17 53 75 86 128 33 54 70 114 83
134 94 149 308 529 353 627 18 39 38 77 45 85 7 8 29 53 49 99 19 46 55 123
79 170 23 47 56 120 71 161 16 41 34 84 41 95 7 11 29 65 49 120 20 55 40 104
44 110 4 5 27 66 51 135 24 69 47 130 51 135 4 6 22 60 39 120 18 61 36 115
40 120 4 6 22 64 40 130 17 65 34 124 38 130 8 13 66 236 96 370 13 55 28 116
34 135 6 19 18 78 27 130 8 52 20 104 25 115 8 19 19 86 55 330 8 61 20 130
25 155 6 25 14 90 20 145 5 55 14 145 19 200 6 55 15 147 21 205 34 345 34
1141 0 1415 -5 38 -7 72 -4 77 3 4 -3 65 -11 135 -40 322 -47 374 -62 463 -9
52 -19 122 -23 155 -4 33 -15 92 -24 130 -10 39 -19 89 -21 113 -3 23 -16 87
-30 142 -14 54 -27 116 -30 137 -3 21 -18 83 -34 138 -17 54 -28 102 -26 105
3 4 -11 53 -30 109 -19 56 -36 114 -38 129 -11 69 -131 426 -218 647 -22 55
-41 109 -43 120 -2 11 -13 40 -24 65 -71 156 -84 187 -88 206 -7 37 -277 591
-326 669 -14 22 -34 60 -46 85 -26 56 -53 104 -114 202 -27 41 -48 79 -48 82
0 4 -22 40 -50 81 -27 41 -50 77 -50 80 0 3 -18 33 -40 65 -22 32 -40 62 -40
66 0 3 -22 36 -49 73 -50 68 -148 209 -166 240 -5 9 -34 47 -62 83 -29 36 -53
69 -53 73 0 6 -32 46 -152 196 -27 32 -48 61 -48 64 0 4 -31 41 -68 83 -37 43
-85 99 -106 125 -21 26 -73 85 -117 131 -43 46 -79 87 -79 92 0 7 -132 144
-326 338 -119 118 -320 307 -385 359 -31 26 -70 59 -86 74 -41 40 -129 114
-188 159 -27 20 -54 43 -60 50 -9 10 -41 35 -214 163 -25 19 -48 37 -51 41 -3
4 -45 34 -95 68 -125 86 -187 130 -205 145 -8 7 -44 30 -80 52 -36 21 -77 48
-92 60 -14 13 -57 40 -95 61 -37 20 -72 41 -78 46 -18 16 -118 75 -215 128
-52 29 -102 58 -110 65 -8 7 -69 40 -135 74 -66 34 -136 70 -155 81 -41 23
-326 160 -334 160 -3 0 -49 21 -103 46 -54 26 -134 60 -178 76 -44 16 -89 35
-100 42 -11 7 -58 26 -105 41 -47 15 -107 38 -135 50 -53 24 -201 75 -217 75
-5 0 -28 9 -51 19 -23 11 -87 31 -142 46 -55 15 -105 31 -110 36 -6 4 -59 20
-119 34 -59 14 -115 30 -124 35 -10 5 -69 21 -132 35 -63 14 -148 34 -188 44
-40 11 -96 22 -125 26 -29 4 -56 11 -62 15 -5 5 -62 16 -125 25 -63 9 -122 20
-130 24 -9 5 -65 14 -125 21 -61 7 -114 16 -120 20 -5 4 -46 11 -90 14 -44 4
-107 12 -140 17 -62 10 -208 25 -375 39 -136 11 -698 39 -703 34z m37 -423 c6
-4 58 -11 116 -15 57 -3 109 -11 114 -16 6 -6 22 -10 37 -10 73 0 313 -68 439
-124 87 -39 176 -112 255 -211 85 -105 151 -155 230 -176 153 -40 205 -68 192
-102 -5 -13 -20 -17 -66 -17 -33 0 -63 5 -66 10 -3 6 -51 10 -108 10 -84 0
-108 -4 -134 -20 -59 -36 -56 -128 5 -163 32 -19 36 -19 114 -2 87 19 256 21
273 4 14 -14 -7 -25 -59 -32 -23 -3 -68 -18 -100 -33 -45 -20 -65 -37 -88 -73
-16 -25 -32 -58 -35 -73 -3 -16 -10 -28 -16 -28 -6 0 -8 -24 -5 -64 6 -75 45
-165 85 -196 186 -142 211 -167 254 -257 23 -49 45 -97 49 -108 16 -41 131
-184 177 -221 26 -21 57 -47 67 -58 11 -10 63 -39 115 -63 53 -24 103 -48 112
-53 40 -21 157 -32 336 -32 111 1 195 -3 198 -9 4 -5 14 -9 24 -9 9 0 61 -45
115 -100 107 -110 134 -123 209 -100 65 19 101 65 127 162 30 111 24 197 -21
284 -34 67 -32 84 7 84 28 0 65 17 76 34 11 16 9 71 -3 103 -39 98 -3 187 93
227 25 11 65 15 125 14 160 -3 304 69 378 191 38 64 88 97 132 88 44 -8 89 12
142 63 28 27 63 53 77 56 25 6 88 -21 189 -83 111 -68 156 -95 225 -133 41
-23 93 -56 115 -72 22 -16 83 -56 135 -89 52 -34 106 -69 120 -80 14 -10 50
-35 80 -55 69 -46 202 -143 215 -158 6 -7 46 -38 90 -69 76 -55 159 -121 215
-170 14 -13 48 -40 75 -62 28 -21 73 -59 100 -84 28 -25 86 -77 129 -116 219
-195 588 -575 791 -815 33 -39 78 -92 100 -118 23 -26 61 -73 85 -105 25 -32
69 -89 98 -125 29 -37 64 -85 79 -107 15 -22 51 -69 79 -105 28 -36 53 -70 55
-75 2 -6 36 -57 74 -113 101 -148 107 -160 109 -195 5 -62 -29 -73 -94 -32
-55 35 -94 41 -125 21 -32 -21 -32 -45 0 -82 49 -57 27 -84 -66 -82 -35 1 -73
-1 -84 -5 -26 -9 -65 -70 -65 -101 0 -19 -7 -26 -29 -31 -16 -3 -50 -20 -76
-37 -53 -35 -87 -35 -194 3 -58 19 -63 20 -86 5 -47 -31 -24 -116 31 -116 56
0 130 -56 190 -145 19 -27 45 -65 58 -82 30 -42 86 -211 86 -262 0 -46 -22
-74 -69 -90 -42 -14 -138 -14 -146 -1 -3 6 -14 10 -23 10 -9 0 -34 5 -54 11
-27 7 -38 15 -38 29 0 47 -85 81 -118 48 -9 -9 -17 -9 -34 0 -52 26 -102 42
-130 42 -31 0 -68 -16 -80 -34 -13 -19 -9 -68 9 -114 13 -35 14 -48 5 -63 -16
-26 -15 -60 3 -86 39 -56 25 -176 -30 -260 -19 -29 -35 -57 -35 -62 0 -5 11
-22 24 -38 75 -89 89 -132 65 -198 -26 -70 17 -115 108 -115 27 0 57 -6 68
-14 11 -7 31 -17 45 -21 14 -4 44 -26 67 -48 50 -48 97 -55 135 -21 13 12 40
29 62 38 33 16 47 17 94 7 89 -18 131 -14 169 15 45 34 61 69 69 150 3 38 15
105 25 148 21 90 48 127 109 145 67 20 97 71 91 154 -3 32 23 67 48 67 9 0 27
-16 41 -36 51 -71 112 -83 157 -31 52 62 126 72 159 22 8 -13 21 -49 28 -79
29 -125 68 -206 130 -270 62 -64 156 -172 156 -179 0 -2 25 -41 55 -86 54 -81
60 -98 56 -154 -3 -33 14 -57 39 -57 17 0 33 44 34 95 1 14 10 21 31 25 40 7
48 46 13 59 -29 11 -69 62 -109 139 -16 31 -55 86 -87 121 -77 88 -130 159
-149 201 -26 59 -42 119 -34 124 10 7 51 -37 84 -89 28 -45 172 -195 188 -195
5 0 31 -34 58 -75 46 -70 87 -163 124 -280 9 -27 32 -99 51 -160 20 -60 37
-121 40 -135 2 -14 19 -77 36 -140 18 -63 35 -128 37 -145 3 -16 17 -76 33
-133 22 -84 26 -111 19 -149 -13 -68 -31 -89 -93 -108 -72 -23 -95 -14 -195
79 -76 70 -114 102 -201 168 -58 43 -122 142 -149 227 -12 38 -37 94 -56 126
-19 31 -35 61 -35 65 0 16 -135 132 -181 155 -62 32 -195 65 -261 65 -30 0
-80 -7 -111 -15 -32 -8 -66 -15 -76 -15 -9 0 -50 -21 -89 -46 -98 -63 -131
-66 -219 -21 -37 19 -88 38 -113 42 -31 5 -55 18 -78 41 -40 40 -70 43 -101
10 -19 -20 -22 -31 -17 -61 11 -58 -8 -100 -60 -130 -76 -45 -155 -132 -199
-220 -38 -77 -39 -84 -42 -190 l-3 -110 -82 -81 c-149 -144 -156 -153 -307
-389 -14 -22 -28 -42 -31 -45 -3 -3 -28 -34 -55 -70 -27 -36 -89 -106 -138
-156 -98 -102 -104 -109 -152 -194 -45 -79 -55 -120 -60 -237 -5 -116 3 -149
73 -288 76 -152 86 -206 57 -313 -9 -32 -20 -75 -26 -97 -8 -27 -29 -56 -65
-91 -75 -72 -74 -118 2 -190 19 -17 34 -36 34 -41 0 -6 -14 -27 -30 -48 -24
-30 -30 -47 -30 -87 0 -65 19 -103 90 -180 57 -63 121 -159 163 -246 38 -79
161 -235 243 -308 119 -108 292 -282 335 -339 60 -80 70 -83 197 -58 59 12
114 22 122 22 8 1 107 3 220 5 113 3 222 9 244 15 21 5 44 7 51 5 7 -3 61 11
120 30 120 40 137 45 217 53 52 5 62 3 100 -23 55 -37 108 -63 130 -64 10 0
37 -19 62 -42 34 -34 46 -54 55 -96 6 -29 11 -60 11 -68 0 -23 -51 -166 -69
-193 -11 -17 -16 -58 -19 -146 -4 -127 -2 -139 48 -280 12 -33 23 -69 25 -80
2 -11 13 -56 24 -100 12 -44 23 -100 26 -125 2 -25 6 -83 10 -130 8 -92 -4
-222 -31 -326 -16 -64 -84 -201 -150 -299 -18 -28 -41 -69 -50 -91 -17 -42
-36 -86 -65 -149 -25 -57 -55 -150 -70 -220 -7 -33 -16 -65 -20 -71 -5 -5 -16
-57 -25 -115 -9 -57 -20 -113 -25 -124 -5 -11 -13 -72 -19 -135 -25 -271 -19
-247 -84 -340 -32 -47 -83 -123 -114 -170 -30 -46 -61 -91 -69 -98 -7 -8 -32
-40 -54 -71 -62 -88 -255 -339 -274 -356 -6 -5 -28 -32 -50 -60 -21 -27 -46
-57 -55 -65 -9 -8 -36 -40 -60 -70 -24 -30 -53 -65 -64 -76 -12 -12 -59 -63
-106 -114 -123 -135 -385 -396 -536 -535 -131 -121 -363 -321 -393 -340 -8 -5
-43 -32 -78 -60 -120 -96 -330 -255 -339 -255 -3 0 -35 -23 -71 -51 -37 -28
-74 -54 -83 -57 -8 -3 -47 -30 -87 -59 -40 -29 -74 -53 -78 -53 -3 0 -32 -18
-64 -40 -32 -22 -61 -40 -65 -40 -4 0 -40 -23 -81 -50 -41 -28 -86 -55 -100
-60 -14 -5 -49 -25 -77 -45 -29 -19 -56 -35 -61 -35 -4 0 -26 -12 -48 -26 -48
-30 -221 -122 -334 -176 -44 -22 -125 -61 -180 -88 -197 -95 -474 -213 -625
-265 -36 -12 -94 -34 -130 -49 -36 -15 -81 -31 -100 -36 -19 -5 -82 -25 -140
-45 -58 -20 -114 -39 -125 -41 -10 -2 -71 -19 -135 -38 -185 -56 -343 -99
-370 -101 -14 -1 -70 -14 -125 -29 -55 -14 -116 -28 -135 -31 -19 -2 -78 -13
-130 -25 -52 -11 -117 -23 -144 -26 -28 -2 -79 -11 -115 -19 -37 -8 -86 -17
-111 -19 -25 -2 -92 -11 -150 -19 -132 -20 -317 -41 -350 -40 -14 0 -61 -3
-105 -8 -201 -22 -761 -31 -1030 -17 -349 18 -633 44 -707 64 -17 5 -48 71
-48 105 0 31 34 90 74 128 20 19 36 31 36 27 0 -5 19 9 43 31 46 42 93 58 195
68 68 6 133 49 173 115 40 66 61 77 188 104 13 2 62 -2 110 -9 117 -20 132
-19 196 10 39 18 64 38 83 67 29 43 108 122 151 150 21 14 114 48 136 49 15 1
147 66 194 96 30 19 62 38 72 41 50 19 233 188 336 310 32 38 65 62 129 94 98
49 114 70 114 151 0 29 4 57 8 62 5 6 14 28 20 50 14 51 72 120 121 144 40 21
100 38 266 75 61 14 128 33 150 42 26 11 83 20 160 24 109 6 125 10 182 40 70
37 128 109 157 198 18 53 59 122 81 135 8 4 31 31 52 60 21 28 45 60 54 70 10
11 32 47 50 80 18 34 40 72 50 85 9 12 34 66 54 120 20 53 40 106 45 117 13
29 27 88 44 188 25 144 54 195 169 298 54 49 103 89 109 89 22 0 98 63 130
107 47 66 74 127 88 198 6 33 16 83 22 112 13 60 6 139 -16 181 -23 45 -62 64
-145 73 -81 8 -143 33 -176 69 -25 28 -169 113 -215 128 -19 6 -64 16 -100 22
-106 18 -316 89 -398 135 -30 17 -99 58 -155 92 -56 35 -105 63 -109 63 -4 0
-31 11 -60 24 -29 13 -73 29 -98 36 -25 7 -50 16 -57 22 -20 16 -223 51 -332
57 -90 5 -105 9 -117 27 -12 17 -11 25 6 59 11 22 21 51 22 65 2 28 -17 70
-32 70 -18 0 -49 63 -80 160 -32 104 -71 169 -147 245 -71 71 -143 111 -258
140 -93 24 -106 25 -183 15 -185 -24 -348 59 -446 227 -20 34 -51 74 -69 87
-43 33 -122 66 -157 66 -79 0 -140 39 -154 97 -14 56 -53 102 -93 109 -48 9
-115 32 -123 42 -3 4 -23 18 -45 31 -53 31 -128 37 -197 17 -68 -19 -150 -8
-181 25 -50 54 -163 76 -279 55 l-48 -9 -56 56 c-77 77 -141 94 -241 61 -87
-28 -148 -127 -141 -230 4 -60 -13 -67 -71 -28 -53 34 -55 48 -63 299 -3 108
-6 126 -32 178 -34 70 -108 134 -167 143 -22 4 -42 11 -45 15 -13 21 -154 1
-213 -30 -55 -30 -169 -33 -221 -6 -84 43 -198 197 -207 279 -11 104 -14 237
-6 248 24 30 44 149 37 216 -8 83 -22 110 -86 174 -73 72 -98 80 -271 84 -164
4 -243 20 -292 60 -28 22 -30 30 -35 101 -6 86 15 233 45 323 21 64 90 176
146 237 71 78 48 122 -64 125 -169 5 -272 -13 -337 -60 -47 -33 -59 -57 -71
-141 -10 -66 -33 -115 -78 -164 -40 -45 -69 -55 -176 -62 -84 -6 -116 -4 -200
14 -122 27 -172 48 -226 98 -70 65 -174 213 -216 308 -52 117 -66 201 -61 345
4 96 9 124 30 170 14 30 35 64 48 75 23 21 60 86 60 106 0 6 6 25 14 42 7 18
26 63 42 101 47 116 151 224 281 289 28 15 61 28 74 31 13 2 52 12 86 21 57
15 97 17 263 12 148 -4 270 23 370 81 74 44 167 72 236 72 35 0 65 -4 68 -9 3
-5 18 -12 33 -15 16 -4 46 -20 68 -35 56 -40 105 -53 157 -45 23 4 69 8 102 8
56 1 60 0 96 -41 44 -50 78 -148 84 -243 4 -61 35 -162 72 -233 9 -18 22 -42
28 -54 6 -11 39 -51 73 -88 58 -61 65 -66 99 -63 61 5 74 33 75 163 1 61 -4
133 -10 160 -7 28 -14 72 -17 98 -3 27 -16 78 -30 115 -14 37 -34 107 -45 156
-20 92 -26 241 -10 250 5 3 12 17 15 31 14 55 103 145 183 185 37 18 98 53
135 77 88 58 254 225 297 299 19 32 47 81 62 107 32 53 74 171 84 232 4 22 10
49 14 60 5 11 16 52 25 90 24 99 54 139 128 167 78 30 108 59 149 143 27 56
48 82 102 127 37 31 84 64 104 73 52 25 201 178 248 254 65 106 190 216 265
234 14 3 56 15 95 26 38 12 108 22 155 24 67 3 94 9 129 28 24 13 54 30 67 37
25 14 95 35 176 55 39 9 50 8 72 -7 15 -9 24 -21 21 -26 -9 -15 -197 -100
-221 -100 -24 0 -54 -51 -54 -92 0 -32 6 -46 31 -69 17 -16 41 -29 53 -29 27
0 90 46 107 78 19 35 97 86 154 101 28 8 72 20 100 27 27 8 84 14 126 14 84 0
101 10 113 66 11 50 -9 61 -121 69 -54 3 -122 13 -151 21 -80 22 -165 108
-178 180 -7 41 -41 82 -84 104 -69 35 -64 56 17 71 103 19 134 50 117 116 -15
61 -43 73 -167 74 -233 2 -406 -60 -571 -205 -54 -47 -104 -86 -110 -86 -21 0
-25 11 -15 39 15 38 54 76 133 129 39 25 95 69 127 97 31 28 72 58 90 67 82
41 399 142 489 156 75 11 254 -4 299 -26 26 -12 62 -17 131 -17 162 0 188 8
325 93 43 27 62 32 140 37 184 12 191 13 245 56 74 59 93 102 96 229 2 58 5
125 9 150 9 71 -17 190 -53 247 -77 119 -161 170 -303 185 -79 8 -97 6 -157
-12 -118 -37 -215 -27 -285 31 -45 37 -64 72 -77 138 -9 48 -23 84 -56 143 -8
15 -36 41 -63 58 -43 28 -49 37 -55 76 -3 25 -10 54 -16 64 -13 25 -81 60
-116 60 -38 0 -91 -36 -119 -81 -28 -43 -84 -91 -112 -95 -10 -1 -38 -8 -63
-14 -59 -15 -154 -6 -207 20 -23 11 -46 20 -50 20 -5 0 -24 13 -43 28 -31 27
-34 34 -41 107 -10 104 -43 158 -120 200 -31 17 -80 48 -110 71 -119 90 -144
104 -214 119 -85 17 -139 20 -227 10 -49 -6 -86 -3 -135 8 -201 47 -226 46
-252 -7 -12 -26 -12 -36 2 -79 12 -36 13 -55 6 -69 -8 -14 -6 -41 7 -98 9 -44
14 -90 10 -106 -4 -15 -29 -48 -56 -74 -53 -51 -66 -82 -56 -134 8 -43 37 -80
84 -106 21 -12 51 -42 67 -68 40 -62 42 -140 5 -192 -47 -67 -105 -121 -165
-152 -159 -82 -193 -129 -181 -252 9 -92 9 -260 1 -289 -4 -12 -20 -43 -36
-68 -24 -38 -38 -49 -82 -64 -34 -11 -64 -15 -81 -11 -89 22 -164 199 -170
394 -1 71 -6 89 -41 158 -31 61 -54 90 -102 131 -76 64 -135 83 -253 82 -245
-3 -293 -1 -380 14 -52 9 -117 23 -145 31 -27 8 -75 23 -105 32 -82 25 -144
59 -185 101 -63 65 -122 156 -140 218 -20 68 -25 182 -8 217 60 128 88 179
119 213 21 22 48 65 62 95 49 108 148 171 295 186 29 4 88 17 132 30 44 13 87
26 95 28 68 18 230 122 230 147 0 35 -24 40 -88 17 -33 -13 -64 -20 -68 -16
-14 14 6 38 32 38 60 0 106 23 148 74 75 91 131 144 161 152 22 5 41 1 80 -19
62 -33 70 -33 114 -3 27 19 53 25 109 29 59 4 80 10 113 33 22 16 61 40 87 54
32 17 48 32 50 49 6 41 -7 68 -43 90 -19 11 -39 31 -44 44 -10 27 -22 37 -74
66 -50 28 -106 27 -167 -4 -27 -14 -61 -25 -75 -25 -38 0 -75 -42 -75 -84 0
-44 -41 -80 -117 -102 -104 -30 -237 17 -160 57 30 16 37 28 37 65 0 46 -29
68 -81 60 -50 -8 -95 -30 -130 -63 l-26 -24 -58 50 c-53 46 -63 51 -107 51
-84 0 -141 -36 -172 -110 -16 -40 -57 -81 -102 -103 -32 -16 -94 -80 -94 -97
0 -17 -55 -60 -97 -76 -48 -18 -105 -14 -132 10 -28 26 -105 38 -213 34 -91
-3 -112 -7 -177 -37 -41 -18 -93 -35 -115 -37 -23 -2 -50 -6 -62 -9 -12 -2
-72 -5 -135 -6 -160 -1 -250 -23 -409 -98 -47 -22 -106 -44 -130 -50 -25 -5
-94 -21 -155 -35 -310 -70 -340 -74 -394 -47 -22 12 -41 25 -41 30 0 5 19 21
42 36 24 16 68 49 99 74 31 25 89 69 128 96 39 28 102 74 140 103 38 28 72 52
76 52 4 0 35 20 69 45 35 25 66 45 70 45 3 0 37 22 74 49 37 27 87 60 112 73
50 28 129 74 207 125 29 18 57 33 62 33 5 0 45 22 88 48 67 41 133 76 378 200
113 57 298 143 360 167 39 15 96 40 127 56 32 16 63 29 70 29 7 0 60 20 118
44 121 50 132 54 425 151 248 82 403 130 455 140 19 4 85 21 145 37 61 17 126
33 145 35 19 2 76 15 126 28 51 14 104 25 119 25 15 0 63 9 108 21 45 11 102
22 129 24 26 2 94 13 152 25 58 12 109 19 113 17 5 -3 44 1 88 9 44 8 107 16
140 19 33 3 101 9 150 15 106 12 167 16 375 25 85 4 156 8 158 10 8 7 357 3
366 -4z m-7237 -4027 c21 -22 45 -89 57 -154 8 -44 36 -113 72 -178 32 -60 69
-152 99 -252 29 -94 34 -280 11 -392 -18 -86 -23 -101 -65 -192 -17 -36 -40
-105 -52 -153 -11 -48 -25 -96 -30 -106 -13 -25 -32 -331 -24 -392 4 -27 9
-76 11 -108 3 -32 16 -97 31 -145 23 -81 31 -114 68 -282 8 -36 12 -80 9 -97
-16 -87 37 -166 135 -202 69 -25 143 -87 172 -143 15 -29 21 -65 24 -144 6
-154 39 -252 113 -338 63 -71 84 -148 68 -241 -8 -48 17 -97 65 -123 85 -46
129 -113 154 -234 22 -105 64 -187 140 -275 49 -56 85 -73 110 -53 24 20 18
39 -26 88 -54 61 -74 107 -93 218 -22 126 -39 189 -74 266 -33 72 -108 188
-122 188 -17 0 -81 100 -97 152 -17 58 -19 68 -29 174 -9 93 10 134 60 134 24
0 38 -7 49 -23 14 -22 69 -187 73 -218 2 -26 85 -180 126 -236 21 -29 38 -55
38 -59 0 -3 21 -29 46 -58 55 -59 78 -109 70 -146 -8 -41 19 -78 117 -164 48
-43 87 -81 87 -85 0 -5 17 -30 39 -57 89 -112 166 -310 177 -458 6 -76 22
-124 70 -206 52 -89 118 -140 246 -191 29 -11 55 -24 58 -28 3 -4 30 -17 60
-30 149 -62 396 -200 450 -250 76 -71 144 -89 252 -66 179 37 265 5 324 -120
31 -64 93 -131 154 -167 25 -14 95 -38 155 -52 61 -15 119 -31 130 -36 11 -5
58 -21 105 -36 81 -25 126 -48 209 -105 31 -22 45 -44 79 -126 23 -55 44 -120
48 -144 4 -24 21 -67 38 -96 33 -56 53 -69 366 -231 69 -35 132 -70 140 -76 8
-7 53 -31 100 -54 65 -32 92 -51 112 -82 34 -50 74 -54 112 -13 21 22 24 33
19 72 -4 37 -1 51 17 73 31 40 85 52 146 31 90 -30 126 -67 126 -129 0 -43
-42 -81 -120 -107 -31 -10 -69 -29 -85 -43 -16 -13 -40 -24 -54 -24 -39 0
-103 -40 -109 -70 -11 -49 -54 -131 -92 -173 -114 -127 -154 -199 -171 -305
-5 -34 -12 -66 -15 -71 -3 -4 1 -61 9 -127 10 -78 12 -121 5 -128 -6 -6 -10
-26 -10 -46 0 -62 -59 -168 -127 -227 -32 -28 -70 -72 -83 -97 -22 -40 -28
-45 -57 -44 -57 2 -82 -33 -93 -132 -8 -75 -28 -123 -71 -171 -41 -46 -40 -98
2 -133 17 -14 37 -26 45 -26 18 0 54 -36 54 -54 0 -25 -51 -77 -92 -93 -77
-31 -101 -104 -53 -161 27 -32 31 -52 14 -69 -6 -6 -9 -26 -7 -44 3 -29 9 -37
46 -54 140 -66 309 -270 337 -405 11 -55 151 -315 210 -393 25 -31 45 -61 45
-65 0 -4 18 -26 40 -47 22 -21 40 -45 40 -51 0 -7 9 -19 21 -28 11 -8 51 -43
87 -78 37 -35 87 -79 112 -98 25 -19 51 -40 58 -47 7 -7 46 -32 85 -55 40 -23
74 -44 77 -48 6 -9 92 -52 140 -70 65 -25 134 -93 175 -173 20 -42 38 -90 39
-109 0 -18 -3 -143 -8 -278 -10 -295 -27 -383 -106 -537 -42 -83 -52 -111 -60
-183 -6 -54 -6 -100 0 -125 25 -104 6 -216 -56 -332 -19 -36 -34 -71 -34 -79
0 -8 -4 -14 -9 -14 -15 0 -31 -97 -32 -205 -2 -84 2 -113 25 -183 22 -69 26
-98 23 -165 -2 -52 -10 -94 -20 -114 -9 -18 -17 -44 -17 -59 0 -27 0 -27 -57
-20 -31 4 -61 10 -67 15 -6 5 -58 19 -116 31 -58 12 -110 26 -115 30 -6 5 -66
23 -135 40 -69 17 -129 35 -135 39 -5 5 -23 11 -40 15 -48 11 -199 58 -210 66
-5 4 -62 24 -125 45 -63 21 -124 44 -135 50 -11 7 -63 27 -115 45 -52 18 -102
38 -110 45 -8 6 -44 22 -80 35 -36 13 -119 49 -185 80 -66 32 -145 68 -175 80
-30 13 -60 28 -67 33 -7 5 -72 39 -145 76 -172 87 -337 177 -357 194 -9 8 -50
32 -92 55 -41 22 -115 67 -165 99 -49 33 -118 77 -154 98 -36 22 -71 45 -79
52 -7 8 -39 30 -70 50 -31 19 -58 39 -61 42 -3 4 -35 26 -72 50 -37 23 -68 46
-70 50 -2 4 -37 31 -78 60 -88 61 -153 112 -195 150 -16 15 -55 46 -87 69 -31
23 -69 53 -85 68 -15 14 -48 43 -73 63 -25 20 -46 39 -48 43 -2 4 -27 26 -55
48 -57 46 -270 245 -385 360 -91 91 -428 457 -495 538 -26 31 -81 96 -122 144
-41 47 -75 89 -75 93 0 4 -20 31 -45 59 -25 29 -45 56 -45 60 0 4 -29 42 -65
85 -36 43 -65 82 -65 86 0 7 -30 50 -142 206 -32 43 -58 82 -58 85 0 3 -20 35
-45 71 -25 35 -45 66 -45 69 0 3 -18 32 -40 64 -22 33 -43 68 -47 77 -4 10
-26 48 -50 85 -24 37 -59 96 -77 130 -54 101 -80 149 -116 213 -19 33 -35 65
-36 71 -1 6 -23 47 -48 92 -25 45 -46 84 -46 87 0 2 -34 75 -75 161 -41 86
-75 160 -75 165 0 5 -20 53 -44 106 -50 111 -159 389 -163 412 -1 9 -20 63
-41 121 -59 157 -189 585 -197 648 -2 17 -16 69 -30 115 -14 47 -27 100 -29
119 -2 18 -13 69 -24 114 -12 44 -24 103 -27 130 -3 27 -12 74 -20 104 -13 53
-22 102 -30 165 -2 17 -11 73 -20 125 -9 52 -19 120 -21 150 -2 30 -11 93 -18
140 -8 47 -12 88 -10 92 3 4 -2 59 -11 123 -9 63 -14 119 -11 124 3 5 1 42 -4
82 -17 121 -23 821 -10 1014 7 94 16 215 20 270 10 144 29 333 40 385 5 25 14
92 20 150 6 58 15 114 20 125 4 11 13 61 20 110 6 50 17 115 25 145 7 30 21
100 30 155 10 55 21 105 25 110 4 6 18 62 30 125 12 63 26 120 30 125 4 6 17
53 29 105 12 52 28 111 36 130 8 19 26 80 41 134 14 55 30 107 35 115 5 9 25
68 44 131 20 63 42 126 49 140 7 14 28 70 46 125 18 55 37 105 42 111 5 7 22
49 39 94 16 45 42 109 58 143 50 107 69 152 91 208 12 30 27 61 34 69 7 8 23
40 36 70 44 105 330 639 365 680 7 8 20 31 30 50 10 18 24 40 31 48 8 7 14 17
14 22 0 13 41 50 65 60 28 12 56 3 82 -26z"/>
<path d="M7644 17330 c-12 -5 -25 -14 -29 -20 -4 -7 -33 -9 -88 -5 -105 7
-139 -9 -176 -80 -15 -29 -38 -56 -54 -63 -37 -18 -40 -66 -6 -90 39 -27 16
-72 -37 -72 -31 0 -33 3 -36 37 -3 33 -7 39 -33 43 -24 4 -31 12 -42 49 -10
37 -10 47 2 64 21 30 19 50 -10 77 l-25 24 -29 -22 c-16 -12 -51 -27 -78 -33
-26 -7 -60 -18 -74 -25 -14 -7 -36 -10 -48 -7 -17 4 -23 -1 -32 -25 -6 -17
-20 -34 -31 -38 -11 -3 -26 -21 -34 -39 -7 -19 -18 -36 -24 -40 -15 -9 -12
-42 6 -59 9 -10 33 -16 57 -16 134 0 182 -5 182 -19 0 -22 -45 -29 -114 -18
-57 9 -64 8 -83 -10 -21 -22 -19 -57 5 -66 7 -2 57 0 112 4 55 5 111 9 125 9
14 -1 93 -3 175 -6 83 -2 166 -4 185 -4 19 0 62 0 95 0 102 -1 143 9 181 42
31 27 45 32 111 38 66 5 78 9 97 33 26 33 31 33 66 3 16 -13 47 -26 69 -30 23
-3 41 -11 41 -17 0 -13 72 -45 133 -59 26 -5 70 -26 98 -45 27 -18 60 -37 72
-41 12 -4 24 -10 27 -14 13 -18 91 -59 141 -73 44 -13 66 -28 102 -66 26 -28
47 -57 47 -65 0 -18 -27 -46 -44 -46 -7 0 -25 -13 -41 -30 -15 -16 -44 -34
-64 -40 -57 -18 -79 -31 -84 -51 -8 -32 4 -59 34 -75 58 -30 28 -49 -87 -57
-45 -3 -98 -13 -119 -21 -50 -21 -66 -20 -120 6 -44 21 -47 22 -78 6 -17 -10
-57 -28 -88 -41 -44 -19 -57 -30 -61 -51 -7 -36 9 -45 98 -56 44 -5 86 -11 95
-15 10 -4 62 13 125 41 120 52 142 55 207 26 25 -11 58 -23 75 -27 27 -5 83
-42 165 -105 15 -12 27 -31 27 -45 0 -12 9 -33 19 -46 16 -20 27 -24 72 -22
29 1 59 -3 66 -8 7 -6 25 -9 40 -6 35 7 63 -8 63 -33 0 -11 10 -28 22 -39 18
-17 34 -20 87 -19 49 1 78 -4 115 -20 27 -12 58 -22 69 -22 12 0 38 -12 58
-26 50 -34 83 -30 87 13 3 28 -3 37 -55 78 -61 49 -136 88 -191 98 -38 8 -92
45 -92 64 0 20 8 19 190 -24 36 -9 85 -27 110 -39 25 -13 53 -24 62 -24 10 0
38 -5 62 -12 36 -9 48 -9 60 1 21 17 20 40 -1 63 -12 13 -13 22 -6 29 16 16
29 4 37 -32 5 -25 10 -30 28 -27 18 2 24 10 26 39 3 32 -2 40 -44 74 -25 21
-59 50 -75 65 -16 14 -49 31 -74 38 -43 11 -147 71 -160 92 -4 6 -29 22 -56
36 -57 28 -76 62 -56 97 23 41 49 50 47 15 -4 -40 0 -48 19 -48 24 0 33 13 41
60 4 26 11 36 28 38 12 2 22 -1 22 -7 0 -6 6 -11 13 -11 6 0 37 -13 67 -30 30
-16 66 -29 81 -30 30 0 50 -17 42 -37 -9 -24 26 -52 63 -51 27 1 40 -5 61 -30
42 -52 93 -39 93 24 l0 32 71 -2 70 -1 50 52 c73 77 66 106 -31 116 -31 4 -67
15 -82 27 -20 15 -43 20 -84 20 -43 0 -68 6 -101 25 -23 14 -43 29 -43 33 0
16 -57 40 -110 45 -61 7 -150 35 -150 46 0 15 -52 31 -99 31 -63 0 -80 18 -62
63 7 18 17 48 23 67 13 45 22 54 54 55 38 0 55 31 29 51 -16 12 -44 14 -132
12 l-111 -4 5 31 c7 46 -16 62 -66 45 -32 -10 -44 -10 -72 3 -19 8 -49 20 -68
26 -19 6 -49 27 -67 46 -33 36 -67 45 -104 25 -28 -15 -210 -20 -250 -7 -41
14 -47 40 -10 45 55 8 69 55 23 73 -16 6 -38 20 -50 31 l-22 21 -73 -23 c-40
-12 -84 -26 -98 -31 -14 -5 -34 -8 -46 -7 -22 2 -94 -38 -94 -52 0 -9 -57 -40
-74 -40 -6 0 -17 9 -23 20 -7 10 -32 24 -55 30 -34 10 -48 9 -74 -3 -18 -9
-48 -19 -69 -23 l-36 -6 7 74 c6 71 5 76 -17 92 -26 17 -52 20 -85 6z"/>
<path d="M15402 14904 c-20 -14 -23 -24 -21 -72 1 -32 -2 -73 -6 -93 -6 -29
-3 -39 11 -50 60 -47 114 -113 119 -147 9 -58 30 -86 70 -97 26 -8 41 -20 52
-43 9 -18 19 -32 24 -32 19 0 49 -46 49 -76 0 -24 -8 -38 -35 -58 -37 -29 -36
-26 -38 -171 0 -78 5 -96 43 -136 44 -48 77 -60 154 -58 66 2 106 -6 106 -22
0 -5 14 -9 30 -9 17 0 45 -7 61 -16 61 -31 105 0 80 58 -8 18 -15 51 -16 73
-3 54 -11 71 -49 95 -18 11 -40 36 -48 57 -9 21 -26 62 -37 91 -41 101 -147
250 -236 332 -15 14 -31 34 -36 45 -6 11 -16 31 -24 45 -8 14 -15 38 -15 53 0
35 -43 77 -80 77 -36 0 -55 24 -52 67 4 50 -5 71 -38 88 -36 19 -40 19 -68 -1z"/>
<path d="M15208 14600 c-20 -16 -21 -21 -10 -45 7 -15 11 -29 9 -31 -6 -6 -77
19 -77 28 0 4 -11 8 -25 8 -17 0 -25 -5 -25 -17 0 -34 22 -98 40 -118 27 -30
40 -93 30 -145 -9 -49 -2 -71 32 -94 26 -19 84 -21 94 -5 4 8 26 10 65 5 74
-7 103 4 124 49 15 30 15 40 5 65 -7 17 -19 34 -27 38 -13 8 -30 76 -38 149
-5 52 -40 93 -79 93 -19 0 -39 6 -45 14 -19 23 -50 25 -73 6z"/>
<path d="M6679 9618 c-143 -39 -226 -107 -201 -164 12 -25 45 -33 58 -13 3 6
21 18 38 26 40 19 84 44 120 68 37 25 84 21 116 -10 20 -19 40 -26 97 -31 58
-5 77 -12 94 -30 13 -13 29 -24 36 -24 8 0 33 -11 56 -24 23 -13 63 -26 89
-30 67 -8 117 -31 127 -58 12 -32 39 -53 86 -68 54 -17 95 -47 95 -70 0 -10
-12 -25 -26 -34 -17 -12 -24 -25 -22 -39 4 -29 46 -39 74 -17 16 12 46 17 114
18 50 1 97 -1 102 -5 15 -8 163 -8 177 1 15 9 14 59 -1 74 -7 7 -31 12 -55 12
-50 0 -157 47 -190 83 -15 16 -37 26 -68 29 -56 7 -91 29 -112 73 -17 36 -23
39 -140 74 -40 12 -78 28 -85 35 -7 7 -54 31 -104 53 -65 28 -101 39 -123 35
-17 -2 -37 0 -44 5 -52 41 -211 57 -308 31z"/>
<path d="M8042 9087 c-13 -15 -6 -47 12 -59 6 -4 23 -8 37 -8 35 0 50 -20 52
-71 2 -38 -1 -43 -23 -50 -44 -13 -124 -9 -144 6 -29 22 -73 19 -81 -5 -3 -11
-4 -28 0 -39 6 -21 79 -31 241 -31 105 0 121 -4 103 -26 -8 -10 -6 -22 8 -46
34 -58 103 -45 118 22 7 34 38 47 90 40 22 -3 47 -3 55 1 8 3 47 9 87 13 66 7
73 5 85 -13 15 -25 50 -27 68 -6 10 13 10 19 -3 33 -9 9 -20 29 -26 44 -7 19
-27 35 -65 53 -30 14 -65 38 -78 53 -38 45 -73 62 -127 62 -27 0 -53 5 -57 11
-5 8 -36 10 -105 5 -60 -4 -106 -3 -117 3 -10 5 -41 13 -68 16 -38 5 -53 3
-62 -8z"/>
<path d="M8942 8848 c-5 -7 -12 -22 -16 -34 -11 -35 16 -47 101 -46 62 1 80 5
97 21 30 31 7 51 -60 51 -29 0 -56 5 -59 10 -9 14 -51 12 -63 -2z"/>
</g>
</svg>
